<?xml version="1.0" encoding="utf-8"?>
<!-- Generator: Adobe Illustrator 23.0.0, SVG Export Plug-In . SVG Version: 6.00 Build 0)  -->
<svg version="1.1" id="Layer_1" xmlns="http://www.w3.org/2000/svg" xmlns:xlink="http://www.w3.org/1999/xlink" x="0px" y="0px"
	 viewBox="0 0 2.8 33" style="enable-background:new 0 0 2.8 33;" xml:space="preserve">
<style type="text/css">
	.st0{clip-path:url(#SVGID_2_);}
	.st1{clip-path:url(#SVGID_4_);}
	.st2{fill:none;}
	.st3{fill:#00FF00;}
	.st4{fill:#FF8C00;}
	.st5{clip-path:url(#SVGID_6_);}
</style>
<g>
	<g>
		<defs>
			<rect id="SVGID_1_" width="2.8" height="33"/>
		</defs>
		<clipPath id="SVGID_2_">
			<use xlink:href="#SVGID_1_"  style="overflow:visible;"/>
		</clipPath>
		<g class="st0">
			<g>
				<defs>
					
						<rect id="SVGID_3_" x="-2.1" y="-15.5" transform="matrix(0.7071 -0.7071 0.7071 0.7071 3.6961 10.0082)" width="32" height="32"/>
				</defs>
				<clipPath id="SVGID_4_">
					<use xlink:href="#SVGID_3_"  style="overflow:visible;"/>
				</clipPath>
				<g class="st1">
					<g>
						
							<rect x="-2.1" y="-15.5" transform="matrix(0.7071 -0.7071 0.7071 0.7071 3.6961 10.0082)" class="st2" width="32" height="32"/>
					</g>
					<g>
						<g>
							<g>
								
									<rect x="9.2" y="11.4" transform="matrix(0.7071 -0.7071 0.7071 0.7071 -0.9902 21.3219)" class="st3" width="32" height="1"/>
							</g>
						</g>
						<g>
							
								<rect x="9.2" y="11.4" transform="matrix(0.7071 -0.7071 0.7071 0.7071 -0.9902 21.3219)" class="st3" width="32" height="1"/>
						</g>
					</g>
					<g>
						<g>
							
								<rect x="9.2" y="11.4" transform="matrix(0.7071 -0.7071 0.7071 0.7071 -0.9902 21.3219)" class="st4" width="32" height="1"/>
						</g>
						<g>
							<g>
								
									<rect x="-13.4" y="-11.3" transform="matrix(0.7071 -0.7071 0.7071 0.7071 8.3824 -1.3056)" class="st4" width="32" height="1"/>
							</g>
							<g>
								
									<rect x="-12" y="-9.9" transform="matrix(0.7071 -0.7071 0.7071 0.7071 7.7965 0.1086)" class="st4" width="32" height="1"/>
							</g>
							<g>
								
									<rect x="-10.6" y="-8.4" transform="matrix(0.7071 -0.7071 0.7071 0.7071 7.2108 1.5232)" class="st4" width="32" height="1"/>
							</g>
							<g>
								<rect x="-9.1" y="-7" transform="matrix(0.7071 -0.7071 0.7071 0.7071 6.6251 2.9373)" class="st4" width="32" height="1"/>
							</g>
							<g>
								
									<rect x="-7.7" y="-5.6" transform="matrix(0.7071 -0.7071 0.7071 0.7071 6.0392 4.3514)" class="st4" width="32" height="1"/>
							</g>
							<g>
								
									<rect x="-6.3" y="-4.2" transform="matrix(0.7071 -0.7071 0.7071 0.7071 5.4536 5.7656)" class="st4" width="32" height="1"/>
							</g>
							<g>
								
									<rect x="-4.9" y="-2.8" transform="matrix(0.7071 -0.7071 0.7071 0.7071 4.8677 7.1798)" class="st4" width="32" height="1"/>
							</g>
							<g>
								
									<rect x="-3.5" y="-1.4" transform="matrix(0.7071 -0.7071 0.7071 0.7071 4.2819 8.5938)" class="st4" width="32" height="1"/>
							</g>
							<g>
								<rect x="-2.1" y="0" transform="matrix(0.7071 -0.7071 0.7071 0.7071 3.696 10.008)" class="st4" width="32" height="1"/>
							</g>
							<g>
								
									<rect x="-0.7" y="1.5" transform="matrix(0.7071 -0.7071 0.7071 0.7071 3.1103 11.4225)" class="st4" width="32" height="1"/>
							</g>
							<g>
								
									<rect x="0.8" y="2.9" transform="matrix(0.7071 -0.7071 0.7071 0.7071 2.5246 12.8365)" class="st4" width="32" height="1"/>
							</g>
							<g>
								<rect x="2.2" y="4.3" transform="matrix(0.7071 -0.7071 0.7071 0.7071 1.9388 14.251)" class="st4" width="32" height="1"/>
							</g>
							<g>
								
									<rect x="3.6" y="5.7" transform="matrix(0.7071 -0.7071 0.7071 0.7071 1.3531 15.6651)" class="st4" width="32" height="1"/>
							</g>
							<g>
								<rect x="5" y="7.1" transform="matrix(0.7071 -0.7071 0.7071 0.7071 0.7674 17.0791)" class="st4" width="32" height="1"/>
							</g>
							<g>
								
									<rect x="6.4" y="8.5" transform="matrix(0.7071 -0.7071 0.7071 0.7071 0.1816 18.4932)" class="st4" width="32" height="1"/>
							</g>
							<g>
								
									<rect x="7.8" y="9.9" transform="matrix(0.7071 -0.7071 0.7071 0.7071 -0.4046 19.9075)" class="st4" width="32" height="1"/>
							</g>
							<g>
								
									<rect x="9.2" y="11.4" transform="matrix(0.7071 -0.7071 0.7071 0.7071 -0.9902 21.3219)" class="st4" width="32" height="1"/>
							</g>
						</g>
						<g>
							
								<rect x="-13.4" y="-11.3" transform="matrix(0.7071 -0.7071 0.7071 0.7071 8.3824 -1.3056)" class="st4" width="32" height="1"/>
						</g>
					</g>
					<g>
						<g>
							
								<rect x="-13.4" y="-11.3" transform="matrix(0.7071 -0.7071 0.7071 0.7071 8.3824 -1.3056)" class="st3" width="32" height="1"/>
						</g>
						<g>
							<g>
								
									<rect x="-13.4" y="-11.3" transform="matrix(0.7071 -0.7071 0.7071 0.7071 8.3824 -1.3056)" class="st3" width="32" height="1"/>
							</g>
						</g>
					</g>
				</g>
			</g>
		</g>
		<g class="st0">
			<g>
				<defs>
					
						<rect id="SVGID_5_" x="-24.7" y="7.2" transform="matrix(0.7071 -0.7071 0.7071 0.7071 -18.9311 0.6357)" width="32" height="32"/>
				</defs>
				<clipPath id="SVGID_6_">
					<use xlink:href="#SVGID_5_"  style="overflow:visible;"/>
				</clipPath>
				<g class="st5">
					<g>
						
							<rect x="-24.7" y="7.2" transform="matrix(0.7071 -0.7071 0.7071 0.7071 -18.9311 0.6357)" class="st2" width="32" height="32"/>
					</g>
					<g>
						<g>
							<g>
								
									<rect x="-13.4" y="34" transform="matrix(0.7071 -0.7071 0.7071 0.7071 -23.6175 11.9492)" class="st3" width="32" height="1"/>
							</g>
						</g>
						<g>
							
								<rect x="-13.4" y="34" transform="matrix(0.7071 -0.7071 0.7071 0.7071 -23.6175 11.9492)" class="st3" width="32" height="1"/>
						</g>
					</g>
					<g>
						<g>
							
								<rect x="-13.4" y="34" transform="matrix(0.7071 -0.7071 0.7071 0.7071 -23.6175 11.9492)" class="st4" width="32" height="1"/>
						</g>
						<g>
							<g>
								
									<rect x="-36" y="11.4" transform="matrix(0.7071 -0.7071 0.7071 0.7071 -14.2449 -10.6778)" class="st4" width="32" height="1"/>
							</g>
							<g>
								
									<rect x="-34.6" y="12.8" transform="matrix(0.7071 -0.7071 0.7071 0.7071 -14.8306 -9.2638)" class="st4" width="32" height="1"/>
							</g>
							<g>
								
									<rect x="-33.2" y="14.2" transform="matrix(0.7071 -0.7071 0.7071 0.7071 -15.4164 -7.8495)" class="st4" width="32" height="1"/>
							</g>
							<g>
								
									<rect x="-31.8" y="15.6" transform="matrix(0.7071 -0.7071 0.7071 0.7071 -16.0022 -6.4354)" class="st4" width="32" height="1"/>
							</g>
							<g>
								
									<rect x="-30.4" y="17" transform="matrix(0.7071 -0.7071 0.7071 0.7071 -16.5878 -5.0212)" class="st4" width="32" height="1"/>
							</g>
							<g>
								
									<rect x="-28.9" y="18.4" transform="matrix(0.7071 -0.7071 0.7071 0.7071 -17.1735 -3.6069)" class="st4" width="32" height="1"/>
							</g>
							<g>
								
									<rect x="-27.5" y="19.8" transform="matrix(0.7071 -0.7071 0.7071 0.7071 -17.7597 -2.1926)" class="st4" width="32" height="1"/>
							</g>
							<g>
								
									<rect x="-26.1" y="21.3" transform="matrix(0.7071 -0.7071 0.7071 0.7071 -18.3454 -0.7784)" class="st4" width="32" height="1"/>
							</g>
							<g>
								
									<rect x="-24.7" y="22.7" transform="matrix(0.7071 -0.7071 0.7071 0.7071 -18.9311 0.6357)" class="st4" width="32" height="1"/>
							</g>
							<g>
								
									<rect x="-23.3" y="24.1" transform="matrix(0.7071 -0.7071 0.7071 0.7071 -19.517 2.0498)" class="st4" width="32" height="1"/>
							</g>
							<g>
								
									<rect x="-21.9" y="25.5" transform="matrix(0.7071 -0.7071 0.7071 0.7071 -20.1027 3.4639)" class="st4" width="32" height="1"/>
							</g>
							<g>
								
									<rect x="-20.5" y="26.9" transform="matrix(0.7071 -0.7071 0.7071 0.7071 -20.6882 4.8784)" class="st4" width="32" height="1"/>
							</g>
							<g>
								
									<rect x="-19" y="28.3" transform="matrix(0.7071 -0.7071 0.7071 0.7071 -21.2739 6.2925)" class="st4" width="32" height="1"/>
							</g>
							<g>
								
									<rect x="-17.6" y="29.7" transform="matrix(0.7071 -0.7071 0.7071 0.7071 -21.86 7.7067)" class="st4" width="32" height="1"/>
							</g>
							<g>
								
									<rect x="-16.2" y="31.2" transform="matrix(0.7071 -0.7071 0.7071 0.7071 -22.4457 9.1209)" class="st4" width="32" height="1"/>
							</g>
							<g>
								
									<rect x="-14.8" y="32.6" transform="matrix(0.7071 -0.7071 0.7071 0.7071 -23.0317 10.5351)" class="st4" width="32" height="1"/>
							</g>
							<g>
								
									<rect x="-13.4" y="34" transform="matrix(0.7071 -0.7071 0.7071 0.7071 -23.6175 11.9492)" class="st4" width="32" height="1"/>
							</g>
						</g>
						<g>
							
								<rect x="-36" y="11.4" transform="matrix(0.7071 -0.7071 0.7071 0.7071 -14.2449 -10.6778)" class="st4" width="32" height="1"/>
						</g>
					</g>
					<g>
						<g>
							
								<rect x="-36" y="11.4" transform="matrix(0.7071 -0.7071 0.7071 0.7071 -14.2449 -10.6778)" class="st3" width="32" height="1"/>
						</g>
						<g>
							<g>
								
									<rect x="-36" y="11.4" transform="matrix(0.7071 -0.7071 0.7071 0.7071 -14.2449 -10.6778)" class="st3" width="32" height="1"/>
							</g>
						</g>
					</g>
				</g>
			</g>
		</g>
	</g>
</g>
</svg>
