<?xml version="1.0" encoding="utf-8"?>
<!-- Generator: Adobe Illustrator 23.0.0, SVG Export Plug-In . SVG Version: 6.00 Build 0)  -->
<svg version="1.1" id="Layer_1" xmlns="http://www.w3.org/2000/svg" xmlns:xlink="http://www.w3.org/1999/xlink" x="0px" y="0px"
	 viewBox="0 0 2.8 33" style="enable-background:new 0 0 2.8 33;" xml:space="preserve">
<style type="text/css">
	.st0{clip-path:url(#SVGID_2_);}
	.st1{fill:none;}
	.st2{fill:#00FF00;}
	.st3{fill:#FF8C00;}
	.st4{fill:#F96B0D;}
</style>
<g>
	<defs>
		<rect id="SVGID_1_" width="2.8" height="33"/>
	</defs>
	<clipPath id="SVGID_2_">
		<use xlink:href="#SVGID_1_"  style="overflow:visible;"/>
	</clipPath>
	<g class="st0">
		<rect x="-24.7" y="7.1" transform="matrix(0.7071 -0.7071 0.7071 0.7071 -18.9053 0.6415)" class="st1" width="32" height="32"/>
		<rect x="-13.4" y="34" transform="matrix(0.7071 -0.7071 0.7071 0.7071 -23.5972 11.9412)" class="st2" width="32" height="1"/>
		<rect x="-13.4" y="34" transform="matrix(0.7071 -0.7071 0.7071 0.7071 -23.5972 11.9412)" class="st2" width="32" height="1"/>
		<rect x="-13.4" y="34" transform="matrix(0.7071 -0.7071 0.7071 0.7071 -23.5972 11.9412)" class="st3" width="32" height="1"/>
		<rect x="-36" y="11.3" transform="matrix(0.7071 -0.7071 0.7071 0.7071 -14.2134 -10.6584)" class="st4" width="32" height="1"/>
		<rect x="-34.6" y="12.7" transform="matrix(0.7071 -0.7071 0.7071 0.7071 -14.8049 -9.2584)" class="st4" width="32" height="1"/>
		<rect x="-33.2" y="14.2" transform="matrix(0.7071 -0.7071 0.7071 0.7071 -15.3967 -7.8584)" class="st4" width="32" height="1"/>
		<rect x="-31.8" y="15.6" transform="matrix(0.7071 -0.7071 0.7071 0.7071 -15.9883 -6.4585)" class="st4" width="32" height="1"/>
		<rect x="-30.4" y="17" transform="matrix(0.7071 -0.7071 0.7071 0.7071 -16.5799 -5.0584)" class="st4" width="32" height="1"/>
		<rect x="-28.9" y="18.3" transform="matrix(0.7071 -0.7071 0.7071 0.7071 -17.1009 -3.629)" class="st4" width="32" height="1"/>
		<rect x="-27.5" y="19.7" transform="matrix(0.7071 -0.7071 0.7071 0.7071 -17.6928 -2.2293)" class="st4" width="32" height="1"/>
		<rect x="-26.1" y="21.2" transform="matrix(0.7071 -0.7071 0.7071 0.7071 -18.3137 -0.7586)" class="st4" width="32" height="1"/>
		<rect x="-24.7" y="22.6" transform="matrix(0.7071 -0.7071 0.7071 0.7071 -18.9053 0.6415)" class="st4" width="32" height="1"/>
		<rect x="-23.3" y="24.1" transform="matrix(0.7071 -0.7071 0.7071 0.7071 -19.4969 2.0413)" class="st4" width="32" height="1"/>
		<rect x="-21.9" y="25.5" transform="matrix(0.7071 -0.7071 0.7071 0.7071 -20.0885 3.4414)" class="st4" width="32" height="1"/>
		<rect x="-20.5" y="26.9" transform="matrix(0.7071 -0.7071 0.7071 0.7071 -20.6803 4.8416)" class="st4" width="32" height="1"/>
		<rect x="-19" y="28.2" transform="matrix(0.7071 -0.7071 0.7071 0.7071 -21.2012 6.2709)" class="st4" width="32" height="1"/>
		<rect x="-17.6" y="29.6" transform="matrix(0.7071 -0.7071 0.7071 0.7071 -21.7929 7.6707)" class="st4" width="32" height="1"/>
		<rect x="-16.2" y="31.1" transform="matrix(0.7071 -0.7071 0.7071 0.7071 -22.4138 9.1414)" class="st4" width="32" height="1"/>
		<rect x="-14.8" y="32.5" transform="matrix(0.7071 -0.7071 0.7071 0.7071 -23.0056 10.5413)" class="st4" width="32" height="1"/>
		<rect x="-13.4" y="34" transform="matrix(0.7071 -0.7071 0.7071 0.7071 -23.5972 11.9412)" class="st4" width="32" height="1"/>
	</g>
	<g class="st0">
		<rect x="-2.4" y="-15.1" transform="matrix(0.7071 -0.7071 0.7071 0.7071 3.3749 9.8702)" class="st1" width="32" height="32"/>
		<rect x="8.9" y="11.7" transform="matrix(0.7071 -0.7071 0.7071 0.7071 -1.317 21.17)" class="st2" width="32" height="1"/>
		<rect x="8.9" y="11.7" transform="matrix(0.7071 -0.7071 0.7071 0.7071 -1.317 21.17)" class="st2" width="32" height="1"/>
		<rect x="8.9" y="11.7" transform="matrix(0.7071 -0.7071 0.7071 0.7071 -1.317 21.17)" class="st3" width="32" height="1"/>
		<rect x="-13.7" y="-11" transform="matrix(0.7071 -0.7071 0.7071 0.7071 8.0667 -1.4297)" class="st4" width="32" height="1"/>
		
			<rect x="-12.3" y="-9.5" transform="matrix(0.7071 -0.7071 0.7071 0.7071 7.4752 -2.970814e-02)" class="st4" width="32" height="1"/>
		<rect x="-10.9" y="-8.1" transform="matrix(0.7071 -0.7071 0.7071 0.7071 6.8835 1.3703)" class="st4" width="32" height="1"/>
		<rect x="-9.5" y="-6.7" transform="matrix(0.7071 -0.7071 0.7071 0.7071 6.2919 2.7702)" class="st4" width="32" height="1"/>
		<rect x="-8.1" y="-5.3" transform="matrix(0.7071 -0.7071 0.7071 0.7071 5.7002 4.1704)" class="st4" width="32" height="1"/>
		<rect x="-6.7" y="-4" transform="matrix(0.7071 -0.7071 0.7071 0.7071 5.1792 5.5997)" class="st4" width="32" height="1"/>
		<rect x="-5.3" y="-2.5" transform="matrix(0.7071 -0.7071 0.7071 0.7071 4.5874 6.9994)" class="st4" width="32" height="1"/>
		<rect x="-3.8" y="-1.1" transform="matrix(0.7071 -0.7071 0.7071 0.7071 3.9664 8.4702)" class="st4" width="32" height="1"/>
		<rect x="-2.4" y="0.4" transform="matrix(0.7071 -0.7071 0.7071 0.7071 3.3749 9.8702)" class="st4" width="32" height="1"/>
		<rect x="-1" y="1.8" transform="matrix(0.7071 -0.7071 0.7071 0.7071 2.7832 11.2701)" class="st4" width="32" height="1"/>
		<rect x="0.4" y="3.2" transform="matrix(0.7071 -0.7071 0.7071 0.7071 2.1917 12.6701)" class="st4" width="32" height="1"/>
		<rect x="1.8" y="4.6" transform="matrix(0.7071 -0.7071 0.7071 0.7071 1.5999 14.0704)" class="st4" width="32" height="1"/>
		<rect x="3.2" y="5.9" transform="matrix(0.7071 -0.7071 0.7071 0.7071 1.079 15.4997)" class="st4" width="32" height="1"/>
		<rect x="4.6" y="7.4" transform="matrix(0.7071 -0.7071 0.7071 0.7071 0.4872 16.8994)" class="st4" width="32" height="1"/>
		<rect x="6.1" y="8.8" transform="matrix(0.7071 -0.7071 0.7071 0.7071 -0.1337 18.3702)" class="st4" width="32" height="1"/>
		<rect x="7.5" y="10.3" transform="matrix(0.7071 -0.7071 0.7071 0.7071 -0.7254 19.77)" class="st4" width="32" height="1"/>
		<rect x="8.9" y="11.7" transform="matrix(0.7071 -0.7071 0.7071 0.7071 -1.317 21.17)" class="st4" width="32" height="1"/>
	</g>
</g>
</svg>
