<?xml version="1.0" encoding="utf-8"?>
<!-- Generator: Adobe Illustrator 23.0.0, SVG Export Plug-In . SVG Version: 6.00 Build 0)  -->
<svg version="1.1" id="Layer_1" xmlns="http://www.w3.org/2000/svg" xmlns:xlink="http://www.w3.org/1999/xlink" x="0px" y="0px"
	 viewBox="0 0 93 20" style="enable-background:new 0 0 93 20;" xml:space="preserve">
<style type="text/css">
	.st0{fill:#020202;}
</style>
<g>
	<path class="st0" d="M7.24,5.46v0.46V7.3v0.46v1.38v0.46v1.38v0.46v1.38v0.46v1.38H5.87H5.41H4.03H3.57H2.2v-1.38V12.8v-1.38v-0.46
		V9.59V9.13V7.76V7.3V5.92V5.46V3.63h-2.29v1.83v0.46V7.3v0.46v1.38v0.46v1.38v0.46v1.38v0.46v1.38v0.46v1.83h1.83H2.2h1.38h0.46
		h1.38h0.46H7.7v-1.83h1.83v-1.83V12.8v-1.38v-0.46V9.59V9.13V7.76V7.3V5.92V5.46V3.63H7.24V5.46z M0.37,4.09h1.38v1.38H0.37V4.09z
		 M0.37,5.92h1.38V7.3H0.37V5.92z M0.37,7.76h1.38v1.38H0.37V7.76z M0.37,9.59h1.38v1.38H0.37V9.59z M0.37,11.42h1.38v1.38H0.37
		V11.42z M0.37,13.26h1.38v1.38H0.37V13.26z M1.74,16.47H0.37v-1.38h1.38V16.47z M3.57,16.47H2.2v-1.38h1.38V16.47z M5.41,16.47
		H4.03v-1.38h1.38V16.47z M7.24,16.47H5.87v-1.38h1.38V16.47z M9.08,14.63H7.7v-1.38h1.38V14.63z M9.08,12.8H7.7v-1.38h1.38V12.8z
		 M9.08,10.96H7.7V9.59h1.38V10.96z M9.08,9.13H7.7V7.76h1.38V9.13z M9.08,7.3H7.7V5.92h1.38V7.3z M7.7,4.09h1.38v1.38H7.7V4.09z"/>
	<path class="st0" d="M18.24,5.46h-1.83V7.3h-1.38V5.46H13.2V3.63h-2.29v2.29h1.83v1.83h1.83v1.38v0.46v1.38h-1.83v1.83v0.46v1.38
		h-1.83v2.29h2.29v-1.83h1.83v-1.83V12.8v-1.38h1.38v1.38v0.46v1.83h1.83v1.83h2.29v-2.29H18.7v-1.38V12.8v-1.83h-1.83V9.59V9.13
		V7.76h1.83V5.92h1.83V3.63h-2.29V5.46z M11.37,5.46V4.09h1.38v1.38H11.37z M13.2,7.3V5.92h1.38V7.3H13.2z M12.74,16.47h-1.38v-1.38
		h1.38V16.47z M14.58,14.63H13.2v-1.38h1.38V14.63z M14.58,12.8H13.2v-1.38h1.38V12.8z M20.08,15.09v1.38H18.7v-1.38H20.08z
		 M18.24,14.63h-1.38v-1.38h1.38V14.63z M18.24,11.42v1.38h-1.38v-1.38H18.24z M16.41,10.96h-1.38V9.59h1.38V10.96z M16.41,9.13
		h-1.38V7.76h1.38V9.13z M18.24,7.3h-1.38V5.92h1.38V7.3z M18.7,4.09h1.38v1.38H18.7V4.09z"/>
	<path class="st0" d="M47.58,3.63h-1.38h-0.46h-1.38h-0.46h-1.83v1.83v0.46V7.3v0.46v1.38v0.46v1.38v0.46v1.38v0.46v1.38v0.46v1.83
		h1.83h0.46h1.38h0.46h1.38h0.46h1.83v-2.29h-1.83h-0.46h-1.38h-0.46h-1.38v-1.38V12.8v-1.38h1.38h0.46h1.38h0.46h1.83V9.13h-1.83
		h-0.46h-1.38h-0.46h-1.38V7.76V7.3V5.92h1.38h0.46h1.38h0.46h1.83V3.63h-1.83H47.58z M48.04,15.09h1.38v1.38h-1.38V15.09z
		 M46.21,15.09h1.38v1.38h-1.38V15.09z M48.04,9.59h1.38v1.38h-1.38V9.59z M46.21,9.59h1.38v1.38h-1.38V9.59z M42.54,4.09h1.38v1.38
		h-1.38V4.09z M42.54,9.59h1.38v1.38h-1.38V9.59z M43.91,16.47h-1.38v-1.38h1.38V16.47z M45.75,15.09v1.38h-1.38v-1.38H45.75z
		 M43.91,14.63h-1.38v-1.38h1.38V14.63z M43.91,12.8h-1.38v-1.38h1.38V12.8z M45.75,9.59v1.38h-1.38V9.59H45.75z M43.91,9.13h-1.38
		V7.76h1.38V9.13z M43.91,7.3h-1.38V5.92h1.38V7.3z M45.75,5.46h-1.38V4.09h1.38V5.46z M47.58,5.46h-1.38V4.09h1.38V5.46z
		 M48.04,4.09h1.38v1.38h-1.38V4.09z"/>
	<path class="st0" d="M56.75,3.63h-1.38h-0.46h-1.38h-0.46h-1.83v1.83v0.46V7.3v0.46v1.83h1.83v1.83h1.83h0.46h1.38v1.38v0.46v1.38
		h-1.38h-0.46h-1.38h-0.46h-1.83v2.29h1.83h0.46h1.38h0.46h1.38h0.46h1.83v-1.83v-0.46v-1.38V12.8v-1.83h-1.83V9.13h-1.83V7.3h-1.83
		V5.92h1.38h0.46h1.38h0.46h1.83V3.63h-1.83H56.75z M53.08,16.47h-1.38v-1.38h1.38V16.47z M54.92,16.47h-1.38v-1.38h1.38V16.47z
		 M51.71,4.09h1.38v1.38h-1.38V4.09z M51.71,9.13V7.76h1.38v1.38H51.71z M54.92,10.96h-1.38V9.59h1.38V10.96z M56.75,16.47h-1.38
		v-1.38h1.38V16.47z M58.58,16.47h-1.38v-1.38h1.38V16.47z M58.58,14.63h-1.38v-1.38h1.38V14.63z M58.58,11.42v1.38h-1.38v-1.38
		H58.58z M56.75,9.59v1.38h-1.38V9.59H56.75z M54.92,7.76v1.38h-1.38V7.76H54.92z M53.08,7.3h-1.38V5.92h1.38V7.3z M54.92,5.46
		h-1.38V4.09h1.38V5.46z M56.75,5.46h-1.38V4.09h1.38V5.46z M58.58,4.09v1.38h-1.38V4.09H58.58z"/>
	<path class="st0" d="M61.25,5.46v0.46V7.3v0.46v1.38v0.46v1.38v0.46v1.38v0.46v1.38v0.46v1.83h2.29v-1.83v-0.46v-1.38V12.8v-1.38
		v-0.46V9.59V9.13V7.76V7.3V5.92V5.46V3.63h-2.29V5.46z M63.08,16.47h-1.38v-1.38h1.38V16.47z M63.08,14.63h-1.38v-1.38h1.38V14.63z
		 M63.08,12.8h-1.38v-1.38h1.38V12.8z M63.08,10.96h-1.38V9.59h1.38V10.96z M63.08,9.13h-1.38V7.76h1.38V9.13z M63.08,7.3h-1.38
		V5.92h1.38V7.3z M61.71,4.09h1.38v1.38h-1.38V4.09z"/>
	<path class="st0" d="M75.09,3.63h-1.38h-0.46h-1.38h-0.46h-1.38h-0.46h-1.83v1.83v0.46V7.3h-1.83v1.83v0.46v1.38v0.46v1.38v0.46
		v1.83h1.83v1.83h1.83h0.46h1.38h0.46h1.38h0.46h1.38h0.46h1.83v-1.83v-0.46v-1.38V12.8v-1.83h-2.29v1.83v0.46v1.38h-1.38h-0.46
		h-1.38h-0.46h-1.38V12.8h-1.83v-1.38v-0.46V9.59V9.13V7.76h1.83V5.92h1.38h0.46h1.38h0.46h1.38h0.46h1.83V3.63h-1.83H75.09z
		 M76.92,16.47h-1.38v-1.38h1.38V16.47z M75.54,11.42h1.38v1.38h-1.38V11.42z M75.54,13.26h1.38v1.38h-1.38V13.26z M73.71,15.09
		h1.38v1.38h-1.38V15.09z M71.88,15.09h1.38v1.38h-1.38V15.09z M68.21,4.09h1.38v1.38h-1.38V4.09z M66.38,14.63v-1.38h1.38v1.38
		H66.38z M69.59,16.47h-1.38v-1.38h1.38V16.47z M71.42,15.09v1.38h-1.38v-1.38H71.42z M69.59,13.26v1.38h-1.38v-1.38H69.59z
		 M67.75,12.8h-1.38v-1.38h1.38V12.8z M67.75,10.96h-1.38V9.59h1.38V10.96z M67.75,9.13h-1.38V7.76h1.38V9.13z M69.59,7.3h-1.38
		V5.92h1.38V7.3z M71.42,5.46h-1.38V4.09h1.38V5.46z M73.25,5.46h-1.38V4.09h1.38V5.46z M75.09,5.46h-1.38V4.09h1.38V5.46z
		 M76.92,4.09v1.38h-1.38V4.09H76.92z"/>
	<path class="st0" d="M87.92,3.63v1.83v0.46V7.3v0.46v1.38v0.46v1.38v0.46v1.38h-1.38v-1.38v-0.46V9.13h-1.83V7.3h-1.83V5.92V5.46
		V3.63h-1.83h-0.46h-1.83v1.83v0.46V7.3v0.46v1.38v0.46v1.38v0.46v1.38v0.46v1.38v0.46v1.83h2.29v-1.83v-0.46v-1.38V12.8v-1.38
		v-0.46V9.59V9.13V7.76h1.38v1.83h1.83v1.38v0.46v1.83h1.83v1.83h1.83v1.83h2.29v-1.83v-0.46v-1.38V12.8v-1.38v-0.46V9.59V9.13V7.76
		V7.3V5.92V5.46V3.63H87.92z M81.05,4.09h1.38v1.38h-1.38V4.09z M79.21,4.09h1.38v1.38h-1.38V4.09z M79.21,5.92h1.38V7.3h-1.38V5.92
		z M80.59,16.47h-1.38v-1.38h1.38V16.47z M80.59,14.63h-1.38v-1.38h1.38V14.63z M80.59,12.8h-1.38v-1.38h1.38V12.8z M80.59,10.96
		h-1.38V9.59h1.38V10.96z M80.59,9.13h-1.38V7.76h1.38V9.13z M81.05,7.3V5.92h1.38V7.3H81.05z M82.88,9.13V7.76h1.38v1.38H82.88z
		 M84.71,9.59h1.38v1.38h-1.38V9.59z M84.71,12.8v-1.38h1.38v1.38H84.71z M86.55,14.63v-1.38h1.38v1.38H86.55z M89.76,16.47h-1.38
		v-1.38h1.38V16.47z M89.76,14.63h-1.38v-1.38h1.38V14.63z M89.76,12.8h-1.38v-1.38h1.38V12.8z M89.76,10.96h-1.38V9.59h1.38V10.96z
		 M89.76,9.13h-1.38V7.76h1.38V9.13z M89.76,7.3h-1.38V5.92h1.38V7.3z M88.38,5.46V4.09h1.38v1.38H88.38z"/>
	<path class="st0" d="M38.87,5.46h-1.83V3.63H35.2h-0.46h-1.38h-0.46h-1.38h-0.46h-1.83v1.83v0.46V7.3v0.46v1.38v0.46v1.38v0.46
		v1.38v0.46v1.38v0.46v1.83h1.83h0.46h1.38h0.46h1.38h0.46h1.83v-1.83h1.83v-1.83h1.83v-1.83v-0.46V9.59V9.13V7.3h-1.83V5.46z
		 M38.41,5.92V7.3h-1.38V5.92H38.41z M35.2,4.09h1.38v1.38H35.2V4.09z M33.37,4.09h1.38v1.38h-1.38V4.09z M31.54,4.09h1.38v1.38
		h-1.38V4.09z M29.7,4.09h1.38v1.38H29.7V4.09z M29.7,5.92h1.38V7.3H29.7V5.92z M29.7,7.76h1.38v1.38H29.7V7.76z M29.7,9.59h1.38
		v1.38H29.7V9.59z M29.7,11.42h1.38v1.38H29.7V11.42z M29.7,13.26h1.38v1.38H29.7V13.26z M31.08,16.47H29.7v-1.38h1.38V16.47z
		 M32.91,16.47h-1.38v-1.38h1.38V16.47z M34.75,16.47h-1.38v-1.38h1.38V16.47z M34.75,14.63h-1.38h-0.46h-1.38v-1.38V12.8v-1.38
		v-0.46V9.59V9.13V7.76V7.3V5.92h1.38h0.46h1.38h0.46h1.38v1.83h1.83v1.38v0.46v1.38v0.46v1.38h-1.83v1.83H35.2H34.75z M36.58,16.47
		H35.2v-1.38h1.38V16.47z M38.41,14.63h-1.38v-1.38h1.38V14.63z M40.25,12.8h-1.38v-1.38h1.38V12.8z M40.25,10.96h-1.38V9.59h1.38
		V10.96z M40.25,7.76v1.38h-1.38V7.76H40.25z"/>
</g>
</svg>
